/vscmnt/brussel_pixiu_data/_data_brussel/112/vsc11236/PredSimResults/SUBJ04mtu3D/weighted-LRposFixed/trackIG/worker_03.mot
version=1
nRows=10
nColumns=50
inDegrees=yes
endheader
                time	         pelvis_tilt	         pelvis_list	     pelvis_rotation	           pelvis_tx	           pelvis_ty	           pelvis_tz	       hip_flexion_r	     hip_adduction_r	      hip_rotation_r	        knee_angle_r	       ankle_angle_r	         mtp_angle_r	       hip_flexion_l	     hip_adduction_l	      hip_rotation_l	        knee_angle_l	       ankle_angle_l	         mtp_angle_l	    lumbar_extension	      lumbar_bending	     lumbar_rotation	 ercspn_r/activation	 intobl_r/activation	 extobl_r/activation	    abd_r/activation	    add_r/activation	hamstrings_r/activation	bifemsh_r/activation	glut_max_r/activation	iliopsoas_r/activation	rect_fem_r/activation	  vasti_r/activation	gastroc_r/activation	 soleus_r/activation	tib_ant_r/activation	 ercspn_l/activation	 intobl_l/activation	 extobl_l/activation	    abd_l/activation	    add_l/activation	hamstrings_l/activation	bifemsh_l/activation	glut_max_l/activation	iliopsoas_l/activation	rect_fem_l/activation	  vasti_l/activation	gastroc_l/activation	 soleus_l/activation	tib_ant_l/activation	
          2.11524737	         -5.72840065	          4.91033571	        -12.42987629	          1.79796026	          0.88407968	          0.02256758	         -7.64954956	         -4.27535032	         15.91302762	         -7.91358512	         12.94515111	         21.59929016	         24.77359030	          0.33547016	         -5.15291330	          2.21534904	          5.36458032	          0.21334637	         -2.56913387	         -1.70767519	          1.05568633	          0.02861292	          0.01000003	          0.01000004	          0.09575774	          0.01000020	          0.02024843	          0.14694783	          0.07631617	          0.34037047	          0.01000025	          0.01000005	          0.31304209	          0.27641540	          0.01525293	          0.09400988	          0.15421057	          0.02251440	          0.02603320	          0.10142441	          0.02582769	          0.01000163	          0.01000003	          0.05978774	          0.01458181	          0.02541317	          0.01000004	          0.01000003	          0.26689485	
          2.12934901	         -5.85269006	          4.79627607	        -12.32197424	          1.81259083	          0.88213393	          0.02144798	         -7.88733380	         -4.14535779	         15.11746732	         -9.16156194	         12.83637472	         23.21952496	         24.45211511	          0.60023655	         -3.96170112	          1.60252797	          5.02612817	          0.21882538	         -2.28476954	         -1.99722522	          1.30293501	          0.05326316	          0.01000003	          0.01000006	          0.07753492	          0.01894885	          0.01729121	          0.11898353	          0.06684857	          0.30924410	          0.01000025	          0.01000005	          0.29252805	          0.27511460	          0.01235028	          0.07611985	          0.15080101	          0.01822988	          0.02107908	          0.13009197	          0.02441035	          0.01000086	          0.01000068	          0.04841006	          0.01180762	          0.02057710	          0.01573412	          0.01564299	          0.26761461	
          2.14345066	         -5.96004994	          4.67213725	        -12.14833103	          1.82762155	          0.88033002	          0.02022957	         -8.06941289	         -3.98699897	         14.26478699	        -10.60130533	         12.61182783	         24.90122485	         23.99166853	          0.87015651	         -2.81225854	          0.97444163	          4.63968049	          0.21161396	         -1.98272728	         -2.29833249	          1.54335290	          0.07254803	          0.01000003	          0.01000009	          0.06277992	          0.03637131	          0.01467877	          0.09634086	          0.05412729	          0.27150437	          0.01000049	          0.01000010	          0.26755552	          0.26682186	          0.01000002	          0.06616485	          0.16382361	          0.01476072	          0.02276938	          0.10533541	          0.02923571	          0.04877063	          0.02148747	          0.03919757	          0.01000018	          0.01666129	          0.01273992	          0.01266612	          0.30206438	
          2.15755231	         -6.05125010	          4.54539022	        -11.89753050	          1.84285346	          0.87888045	          0.01890244	         -8.13362823	         -3.79783358	         13.36096664	        -12.30659066	         12.21351109	         26.63670248	         23.40907199	          1.15641321	         -1.73350148	          0.56145866	          4.11545851	          0.19892286	         -1.68286872	         -2.62181341	          1.77454143	          0.09645262	          0.01000002	          0.01000006	          0.05083282	          0.03711748	          0.01444073	          0.07800713	          0.04382682	          0.22826507	          0.01000083	          0.01000019	          0.23494254	          0.25019777	          0.01000001	          0.06979376	          0.14834167	          0.01195175	          0.04626067	          0.08529035	          0.03026876	          0.03948984	          0.03269106	          0.03173822	          0.01000021	          0.01349088	          0.01031555	          0.01025577	          0.32824576	
          2.17165396	         -6.12622514	          4.41620158	        -11.56834953	          1.85813545	          0.87796829	          0.01748274	         -8.04615187	         -3.57587396	         12.39690438	        -14.29990150	         11.57836878	         28.39198503	         22.75779090	          1.45919890	         -0.73299096	          0.23493568	          3.64002118	          0.18467601	         -1.39676258	         -2.96905359	          1.99414053	          0.11428881	          0.01000002	          0.01000007	          0.04115927	          0.03759155	          0.01575911	          0.06316234	          0.03548652	          0.19760400	          0.01000057	          0.01000015	          0.19023266	          0.22268335	          0.01000001	          0.06654642	          0.12317938	          0.01000004	          0.06581849	          0.06949032	          0.03427788	          0.03197515	          0.03848925	          0.02569840	          0.01000020	          0.01714951	          0.01000017	          0.01000011	          0.35052798	
          2.18575561	         -6.18486962	          4.28139772	        -11.16497066	          1.87336720	          0.87767075	          0.01598903	         -7.79177127	         -3.32144398	         11.36023984	        -16.58109870	         10.69128611	         30.07138057	         22.05938162	          1.76899521	          0.18923518	         -0.05342134	          3.28173259	          0.17158270	         -1.13019439	         -3.33305064	          2.19810110	          0.12671014	          0.01000002	          0.01000007	          0.03332660	          0.04561022	          0.02039273	          0.05114260	          0.02873339	          0.17718814	          0.01000025	          0.01000009	          0.15403112	          0.18030643	          0.01000001	          0.06082357	          0.09973826	          0.01000005	          0.08648702	          0.06716945	          0.03850856	          0.02589057	          0.03503391	          0.02080797	          0.01000016	          0.02211615	          0.01000020	          0.01000013	          0.36163309	
          2.19985726	         -6.22724296	          4.13516585	        -10.69352787	          1.88845570	          0.87797265	          0.01444205	         -7.35832871	         -3.03455498	         10.23450853	        -19.15116530	          9.58873314	         31.51216172	         21.32273743	          2.07134161	          1.03723729	         -0.31687656	          3.06277579	          0.16116631	         -0.88999154	         -3.70353592	          2.38337033	          0.13722781	          0.01000002	          0.01000009	          0.02698451	          0.05870733	          0.02563207	          0.04141052	          0.02326539	          0.15950975	          0.01000011	          0.01000004	          0.12471878	          0.14599386	          0.01000001	          0.05153835	          0.08075798	          0.01000005	          0.10566812	          0.06582978	          0.04108567	          0.02096395	          0.02893070	          0.01684819	          0.01000013	          0.02468685	          0.01000026	          0.01000018	          0.35990652	
          2.21395891	         -6.25403682	          3.96721343	        -10.16006073	          1.90330735	          0.87883968	          0.01286265	         -6.73787581	         -2.71562804	          8.99838338	        -21.99750175	          8.32364209	         32.50360818	         20.54834842	          2.34753452	          1.81598872	         -0.54486516	          2.97079770	          0.15427730	         -0.68479419	         -4.06579698	          2.54873098	          0.13932518	          0.01000003	          0.01000011	          0.02184932	          0.06892740	          0.03019229	          0.04128420	          0.01883795	          0.14297298	          0.01000006	          0.01000002	          0.10098462	          0.11821103	          0.01000003	          0.04603755	          0.06538968	          0.01000005	          0.11371500	          0.05330371	          0.04336742	          0.01697501	          0.02548482	          0.01364197	          0.01000011	          0.02193439	          0.01000041	          0.01000031	          0.34994408	
          2.22806056	         -6.26578817	          3.76231839	         -9.57119072	          1.91786481	          0.88021284	          0.01126780	         -5.92905667	         -2.36787087	          7.64150749	        -25.10420466	          6.96356165	         32.82839682	         19.73830052	          2.57651612	          2.53599513	         -0.72953494	          2.96212842	          0.15178520	         -0.52105969	         -4.40035781	          2.69360755	          0.13684614	          0.01000003	          0.01000015	          0.01769136	          0.07899288	          0.03083949	          0.04172405	          0.01525307	          0.12850049	          0.01000005	          0.01000001	          0.08176710	          0.09571530	          0.01000002	          0.04398281	          0.05294600	          0.01000005	          0.11341936	          0.04316003	          0.04563978	          0.01374551	          0.02391705	          0.01104590	          0.01000009	          0.01776214	          0.01000046	          0.01000032	          0.33658871	
          2.24216221	         -6.26227431	          3.50626389	         -8.93198074	          1.93212248	          0.88199685	          0.00966804	         -4.94058923	         -1.99888047	          6.18410461	        -28.43721533	          5.47546873	         32.49193527	         18.89594148	          2.74016276	          3.20851033	         -0.87187050	          2.99810975	          0.15256090	         -0.40013490	         -4.68915622	          2.81608296	          0.13313840	          0.01000003	          0.01000015	          0.01432467	          0.08987575	          0.02925204	          0.04163053	          0.01235039	          0.11771276	          0.01000005	          0.01000001	          0.06620671	          0.07750055	          0.01000001	          0.03778799	          0.04287036	          0.01000005	          0.10659426	          0.03494665	          0.04782932	          0.01113136	          0.02249373	          0.01000004	          0.01000009	          0.01522173	          0.01000050	          0.01000038	          0.32336082	
